<?xml version="1.0" encoding="UTF-8" standalone="no"?>
<!-- Created with Inkscape (http://www.inkscape.org/) -->

<svg
   xmlns:dc="http://purl.org/dc/elements/1.1/"
   xmlns:cc="http://creativecommons.org/ns#"
   xmlns:rdf="http://www.w3.org/1999/02/22-rdf-syntax-ns#"
   xmlns:svg="http://www.w3.org/2000/svg"
   xmlns="http://www.w3.org/2000/svg"
   xmlns:sodipodi="http://sodipodi.sourceforge.net/DTD/sodipodi-0.dtd"
   xmlns:inkscape="http://www.inkscape.org/namespaces/inkscape"
   width="400"
   height="400"
   id="svg2"
   version="1.1"
   inkscape:version="0.47 r22583"
   sodipodi:docname="logo.svg">
  <defs
     id="defs4">
    <inkscape:perspective
       sodipodi:type="inkscape:persp3d"
       inkscape:vp_x="0 : 526.18109 : 1"
       inkscape:vp_y="0 : 1000 : 0"
       inkscape:vp_z="744.09448 : 526.18109 : 1"
       inkscape:persp3d-origin="372.04724 : 350.78739 : 1"
       id="perspective10" />
    <inkscape:perspective
       id="perspective3603"
       inkscape:persp3d-origin="0.5 : 0.33333333 : 1"
       inkscape:vp_z="1 : 0.5 : 1"
       inkscape:vp_y="0 : 1000 : 0"
       inkscape:vp_x="0 : 0.5 : 1"
       sodipodi:type="inkscape:persp3d" />
    <inkscape:perspective
       id="perspective3627"
       inkscape:persp3d-origin="0.5 : 0.33333333 : 1"
       inkscape:vp_z="1 : 0.5 : 1"
       inkscape:vp_y="0 : 1000 : 0"
       inkscape:vp_x="0 : 0.5 : 1"
       sodipodi:type="inkscape:persp3d" />
    <inkscape:perspective
       id="perspective3657"
       inkscape:persp3d-origin="0.5 : 0.33333333 : 1"
       inkscape:vp_z="1 : 0.5 : 1"
       inkscape:vp_y="0 : 1000 : 0"
       inkscape:vp_x="0 : 0.5 : 1"
       sodipodi:type="inkscape:persp3d" />
    <inkscape:perspective
       id="perspective3681"
       inkscape:persp3d-origin="0.5 : 0.33333333 : 1"
       inkscape:vp_z="1 : 0.5 : 1"
       inkscape:vp_y="0 : 1000 : 0"
       inkscape:vp_x="0 : 0.5 : 1"
       sodipodi:type="inkscape:persp3d" />
    <inkscape:perspective
       id="perspective3681-0"
       inkscape:persp3d-origin="0.5 : 0.33333333 : 1"
       inkscape:vp_z="1 : 0.5 : 1"
       inkscape:vp_y="0 : 1000 : 0"
       inkscape:vp_x="0 : 0.5 : 1"
       sodipodi:type="inkscape:persp3d" />
    <inkscape:perspective
       id="perspective3712"
       inkscape:persp3d-origin="0.5 : 0.33333333 : 1"
       inkscape:vp_z="1 : 0.5 : 1"
       inkscape:vp_y="0 : 1000 : 0"
       inkscape:vp_x="0 : 0.5 : 1"
       sodipodi:type="inkscape:persp3d" />
    <inkscape:perspective
       id="perspective3739"
       inkscape:persp3d-origin="0.5 : 0.33333333 : 1"
       inkscape:vp_z="1 : 0.5 : 1"
       inkscape:vp_y="0 : 1000 : 0"
       inkscape:vp_x="0 : 0.5 : 1"
       sodipodi:type="inkscape:persp3d" />
    <inkscape:perspective
       id="perspective3765"
       inkscape:persp3d-origin="0.5 : 0.33333333 : 1"
       inkscape:vp_z="1 : 0.5 : 1"
       inkscape:vp_y="0 : 1000 : 0"
       inkscape:vp_x="0 : 0.5 : 1"
       sodipodi:type="inkscape:persp3d" />
    <inkscape:perspective
       id="perspective3807"
       inkscape:persp3d-origin="0.5 : 0.33333333 : 1"
       inkscape:vp_z="1 : 0.5 : 1"
       inkscape:vp_y="0 : 1000 : 0"
       inkscape:vp_x="0 : 0.5 : 1"
       sodipodi:type="inkscape:persp3d" />
    <inkscape:perspective
       id="perspective3807-5"
       inkscape:persp3d-origin="0.5 : 0.33333333 : 1"
       inkscape:vp_z="1 : 0.5 : 1"
       inkscape:vp_y="0 : 1000 : 0"
       inkscape:vp_x="0 : 0.5 : 1"
       sodipodi:type="inkscape:persp3d" />
    <inkscape:perspective
       id="perspective3843"
       inkscape:persp3d-origin="0.5 : 0.33333333 : 1"
       inkscape:vp_z="1 : 0.5 : 1"
       inkscape:vp_y="0 : 1000 : 0"
       inkscape:vp_x="0 : 0.5 : 1"
       sodipodi:type="inkscape:persp3d" />
    <inkscape:perspective
       id="perspective3923"
       inkscape:persp3d-origin="0.5 : 0.33333333 : 1"
       inkscape:vp_z="1 : 0.5 : 1"
       inkscape:vp_y="0 : 1000 : 0"
       inkscape:vp_x="0 : 0.5 : 1"
       sodipodi:type="inkscape:persp3d" />
    <inkscape:perspective
       id="perspective3965"
       inkscape:persp3d-origin="0.5 : 0.33333333 : 1"
       inkscape:vp_z="1 : 0.5 : 1"
       inkscape:vp_y="0 : 1000 : 0"
       inkscape:vp_x="0 : 0.5 : 1"
       sodipodi:type="inkscape:persp3d" />
    <inkscape:perspective
       id="perspective3990"
       inkscape:persp3d-origin="0.5 : 0.33333333 : 1"
       inkscape:vp_z="1 : 0.5 : 1"
       inkscape:vp_y="0 : 1000 : 0"
       inkscape:vp_x="0 : 0.5 : 1"
       sodipodi:type="inkscape:persp3d" />
  </defs>
  <sodipodi:namedview
     id="base"
     pagecolor="#ffffff"
     bordercolor="#666666"
     borderopacity="1.0"
     inkscape:pageopacity="0.0"
     inkscape:pageshadow="2"
     inkscape:zoom="1.8879751"
     inkscape:cx="291.86887"
     inkscape:cy="235.3278"
     inkscape:document-units="px"
     inkscape:current-layer="layer6"
     showgrid="false"
     inkscape:window-width="1453"
     inkscape:window-height="768"
     inkscape:window-x="53"
     inkscape:window-y="18"
     inkscape:window-maximized="0" />
  <metadata
     id="metadata7">
    <rdf:RDF>
      <cc:Work
         rdf:about="">
        <dc:format>image/svg+xml</dc:format>
        <dc:type
           rdf:resource="http://purl.org/dc/dcmitype/StillImage" />
        <dc:title></dc:title>
      </cc:Work>
    </rdf:RDF>
  </metadata>
  <g
     inkscape:label="Circle"
     inkscape:groupmode="layer"
     id="layer1"
     transform="translate(0,-652.36218)"
     sodipodi:insensitive="true">
    <path
       sodipodi:type="arc"
       style="fill:#a33a3a;fill-opacity:0;fill-rule:nonzero;stroke:#be4747;stroke-width:31.08247375;stroke-miterlimit:4;stroke-opacity:1;stroke-dasharray:none;stroke-dashoffset:0"
       id="path2816"
       sodipodi:cx="199"
       sodipodi:cy="198"
       sodipodi:rx="186"
       sodipodi:ry="186"
       d="m 385,198 a 186,186 0 1 1 -372,0 186,186 0 1 1 372,0 z"
       transform="matrix(0.96517413,0,0,0.96517413,8.930348,661.2577)" />
  </g>
  <g
     inkscape:groupmode="layer"
     id="layer4"
     inkscape:label="Bar" />
  <g
     inkscape:groupmode="layer"
     id="layer2"
     inkscape:label="Pig BG">
    <path
       style="fill:#be4747;fill-opacity:1;stroke:none"
       d="m 96.576572,183.677 c 0,0 -2.792091,-21.77823 -12.005952,-20.94061 -9.213864,0.83763 -11.447528,7.53863 -11.447528,9.77228 0,2.23367 4.746536,6.701 8.37624,3.3505 3.629703,-3.3505 2.233664,-4.74654 0.837624,-5.58415 -1.396041,-0.83764 -3.350496,-0.27922 -3.350496,-0.27922 0,0 1.675248,-0.55842 2.512872,1.39604 0.837624,1.95445 -1.954456,4.74653 -3.629704,3.3505 -1.675248,-1.39605 -1.675248,-5.58417 2.79208,-7.81783 4.467327,-2.23367 7.538622,0.83763 8.934652,3.62971 1.39604,2.79207 0.558422,14.79802 0.558422,14.79802 l 6.42179,-1.67524 z"
       id="path3647" />
    <path
       style="fill:#be4747;fill-opacity:1;stroke:none"
       d="m 270.28071,132.85896 c 0,0 17.03169,-20.66139 20.66139,-20.38218 3.62969,0.27921 13.12277,0 16.19405,0.83763 3.0713,0.83763 8.65546,24.84951 8.65546,24.84951 0,0 -1.67525,1.39604 -3.62971,0.55842 -1.95445,-0.83763 -8.09703,-13.12278 -8.09703,-13.12278 l -5.86337,11.72673 -27.92079,-4.46733 z"
       id="path3643" />
    <path
       style="fill:#be4747;fill-opacity:1;stroke:none"
       d="m 132.67573,250.20756 -4.48561,34.76344 30.27784,0 -5.607,-33.64204 -20.18523,-1.1214 z"
       id="path3671" />
    <path
       style="fill:#be4747;fill-opacity:1;stroke:none"
       d="m 212.85594,250.76825 6.72841,34.76345 25.79224,-1.1214 -12.33542,-35.88485 -20.18523,2.2428 z"
       id="path3671-3"
       sodipodi:nodetypes="ccccc" />
  </g>
  <g
     inkscape:groupmode="layer"
     id="layer3"
     inkscape:label="Pig FG"
     style="display:inline"
     sodipodi:insensitive="true">
    <path
       style="fill:#ff6262;fill-opacity:1;stroke:none"
       d="m 265.00111,180.68065 c -24.11128,-23.66181 -36.4393,-17.0968 -78.49811,-19.06382 -15.68796,-0.73371 -68.40549,-6.72842 -85.22651,3.3642 -16.821029,10.09262 -42.745823,63.80276 0,86.34793 48.61299,25.63965 113.26155,13.45682 144.6608,-1.1214 33.11507,-15.37486 43.17511,-45.86509 19.06382,-69.52691 z"
       id="path3617"
       sodipodi:nodetypes="cssssz" />
    <path
       style="fill:#ff6262;fill-opacity:1;stroke:none"
       d="m 303.70657,133.59476 c -15.21636,-9.7203 -34.656,-15.65032 -55.75771,-10.74227 -6.75078,1.57015 -18.22125,4.59398 -26.10612,15.20177 -12.91259,17.37176 -0.38305,41.56046 30.44402,55.68438 21.83915,10.00597 32.601,7.57998 50.83763,3.61143 24.40261,-5.31034 15.79853,-54.03501 0.58218,-63.75531 z"
       id="path3617-6"
       sodipodi:nodetypes="cssssz"
       mask="none" />
    <path
       style="fill:#ff6262;fill-opacity:1;stroke:none"
       d="m 303.47814,155.32641 c 20.85723,5.76023 13.71952,8.93615 20.32648,11.24297 13.1221,4.58158 8.93925,28.2059 -2.56513,28.49195 0,0 -19.79884,4.12068 -33.50372,3.28254 -15.67034,-0.95833 0.60925,-47.19683 15.74237,-43.01746 z"
       id="path3641"
       sodipodi:nodetypes="cssss" />
    <path
       style="fill:#ff6262;fill-opacity:1;stroke:none"
       d="m 108.70839,249.64685 -11.214008,35.88485 31.399238,0 2.24281,-30.27785 -22.42804,-5.607 z"
       id="path3671-0"
       sodipodi:nodetypes="ccccc" />
    <path
       style="fill:#ff6262;fill-opacity:1;stroke:none"
       d="m 189.1826,252.87035 -1.55399,37.56486 30.13082,0 -10.3488,-39.09785 -18.22803,1.53299 z"
       id="path3671-0-4"
       sodipodi:nodetypes="ccccc" />
  </g>
  <g
     inkscape:groupmode="layer"
     id="layer6"
     inkscape:label="Ear FG"
     style="display:inline">
    <path
       style="fill:#ff6262;fill-opacity:1;stroke:none"
       d="m 228.46028,129.77196 c 0,0 7.96741,-21.66138 10.20824,-21.91036 2.24083,-0.24898 13.44498,-2.24083 17.42868,-0.99592 3.9837,1.2449 15.18786,27.38794 15.18786,27.38794 l -21.41239,4.97962 -9.2123,-20.16748 -12.20009,10.7062 z"
       id="path3645"
       sodipodi:nodetypes="csscccc" />
    <path
       sodipodi:nodetypes="csscccc"
       id="path3797"
       d="m 228.46028,129.77196 c 0,0 7.96741,-21.66138 10.20824,-21.91036 2.24083,-0.24898 13.44498,-2.24083 17.42868,-0.99592 3.9837,1.2449 15.18786,27.38794 15.18786,27.38794 l -21.41239,4.97962 -9.2123,-20.16748 -12.20009,10.7062 z"
       style="fill:#ff6262;fill-opacity:1;stroke:none;display:inline" />
    <path
       sodipodi:type="arc"
       style="fill:#be4747;fill-opacity:1;fill-rule:nonzero;stroke:none"
       id="path3913"
       sodipodi:cx="165.25641"
       sodipodi:cy="108.6826"
       sodipodi:rx="13.771368"
       sodipodi:ry="13.771368"
       d="m 179.02778,108.6826 a 13.771368,13.771368 0 1 1 -27.54274,0 13.771368,13.771368 0 1 1 27.54274,0 z"
       transform="matrix(0.42307693,0,0,0.42307693,210.27819,105.60461)" />
    <path
       sodipodi:type="arc"
       style="fill:#be4747;fill-opacity:1;fill-rule:nonzero;stroke:none;display:inline"
       id="path3913-4"
       sodipodi:cx="165.25641"
       sodipodi:cy="108.6826"
       sodipodi:rx="13.771368"
       sodipodi:ry="13.771368"
       d="m 179.02778,108.6826 a 13.771368,13.771368 0 1 1 -27.54274,0 13.771368,13.771368 0 1 1 27.54274,0 z"
       transform="matrix(0.34615385,0,0,0.34615385,247.09012,111.31647)" />
    <path
       style="fill:none;stroke:#be4747;stroke-width:4.1;stroke-linecap:round;stroke-linejoin:miter;stroke-miterlimit:4;stroke-opacity:1;stroke-dasharray:none;display:inline"
       d="m 317.49052,173.70876 c 1.13573,3.25439 1.0508,8.98805 -0.56181,11.61278"
       id="path3937"
       sodipodi:nodetypes="cc" />
    <path
       style="fill:none;stroke:#be4747;stroke-width:4.1;stroke-linecap:round;stroke-linejoin:miter;stroke-miterlimit:4;stroke-opacity:1;stroke-dasharray:none;display:inline"
       d="m 324.68648,173.52149 c 0.52967,2.64834 1.09147,7.4663 0.40667,10.75402"
       id="path3939"
       sodipodi:nodetypes="cc" />
    <path
       style="fill:#be4747;stroke:none;stroke-width:1px;stroke-linecap:butt;stroke-linejoin:miter;stroke-opacity:1;fill-opacity:1"
       d="m 316.66667,195.69288 c 0,0 -13.58281,-3.82601 -8.05244,-19.66293 l 2.05993,-5.89887 -3.9326,7.20974 c -7.31804,13.41636 4.30712,19.47566 4.30712,19.47566 l 5.61799,-1.1236 z"
       id="path4018"
       sodipodi:nodetypes="cscscc" />
    <path
       style="fill:#be4747;stroke:none;stroke-width:1px;stroke-linecap:butt;stroke-linejoin:miter;stroke-opacity:1;fill-opacity:1;opacity:0.5046729"
       d="m 320.36492,163.98747 c 0.42532,0.43068 1.43516,1.51541 1.86049,1.94609 -3.68792,-0.84165 -6.58138,-1.4899 -9.58887,-0.11302 0,0 -2.6206,1.08995 -7.87881,2.18488 4.34874,-1.30511 7.63669,-2.85362 7.63669,-2.85362 2.98003,-1.20116 4.42867,-1.74219 7.9705,-1.16433 z"
       id="path4020"
       sodipodi:nodetypes="cccccc" />
  </g>
</svg>
